<?xml version="1.0" standalone="no"?><svg xmlns="http://www.w3.org/2000/svg" viewBox="0 0 1440 320"><path fill="#21b0c0" fill-opacity="1" d="M0,160L21.8,154.7C43.6,149,87,139,131,133.3C174.5,128,218,128,262,106.7C305.5,85,349,43,393,37.3C436.4,32,480,64,524,74.7C567.3,85,611,75,655,64C698.2,53,742,43,785,37.3C829.1,32,873,32,916,42.7C960,53,1004,75,1047,85.3C1090.9,96,1135,96,1178,80C1221.8,64,1265,32,1309,58.7C1352.7,85,1396,171,1418,213.3L1440,256L1440,0L1418.2,0C1396.4,0,1353,0,1309,0C1265.5,0,1222,0,1178,0C1134.5,0,1091,0,1047,0C1003.6,0,960,0,916,0C872.7,0,829,0,785,0C741.8,0,698,0,655,0C610.9,0,567,0,524,0C480,0,436,0,393,0C349.1,0,305,0,262,0C218.2,0,175,0,131,0C87.3,0,44,0,22,0L0,0Z"></path></svg>