<?xml version="1.0" standalone="no"?>
<svg viewBox="0 0 200 200" xmlns="http://www.w3.org/2000/svg">
  <path fill="#FA4D56" d="M29.3,-42.9C34.1,-42.6,31.4,-27.8,36,-16.7C40.7,-5.7,52.6,1.8,49.6,5.5C46.6,9.3,28.6,9.2,19.8,14.5C11.1,19.7,11.5,30.2,5.1,44.5C-1.3,58.8,-14.6,76.9,-22.7,75.4C-30.8,73.9,-33.8,52.9,-41.8,38.9C-49.8,24.8,-63,17.9,-69.9,6.7C-76.8,-4.6,-77.4,-20.1,-68.3,-27.6C-59.3,-35,-40.5,-34.4,-27.5,-31C-14.5,-27.6,-7.2,-21.5,2.5,-25.4C12.3,-29.3,24.5,-43.3,29.3,-42.9Z" transform="translate(100 100)" />
</svg>
