<?xml version="1.0" standalone="no"?>
<svg viewBox="0 0 200 200" xmlns="http://www.w3.org/2000/svg">
  <path fill="#FA4D56" d="M21.7,-47.4C25.7,-35.4,24.7,-24.5,35.5,-16.8C46.3,-9.1,68.9,-4.6,70.8,1.1C72.7,6.7,53.8,13.5,42.4,20.2C31,26.8,27.1,33.5,21.3,32.6C15.5,31.8,7.7,23.4,1.4,21C-5,18.7,-10,22.4,-20.7,26C-31.4,29.7,-47.9,33.4,-47.1,29.1C-46.3,24.7,-28.3,12.4,-27,0.8C-25.6,-10.8,-40.9,-21.6,-46.8,-34.8C-52.7,-47.9,-49.1,-63.4,-39.7,-72.3C-30.4,-81.1,-15.2,-83.4,-3.1,-78C8.9,-72.5,17.8,-59.4,21.7,-47.4Z" transform="translate(100 100)" />
</svg>
